<?xml version="1.0" standalone="no"?>
<!DOCTYPE svg PUBLIC "-//W3C//DTD SVG 20010904//EN"
 "http://www.w3.org/TR/2001/REC-SVG-20010904/DTD/svg10.dtd">
<svg version="1.0" xmlns="http://www.w3.org/2000/svg"
 width="700.000000pt" height="200.000000pt" viewBox="0 0 700.000000 200.000000"
 preserveAspectRatio="xMidYMid meet">

<g transform="translate(0.000000,200.000000) scale(0.100000,-0.100000)"
fill="#000000" stroke="none">
<path d="M1430 1991 c-52 -16 -211 -116 -334 -209 l-39 -29 -46 20 c-59 27
-174 28 -249 3 -66 -22 -153 -100 -177 -159 -29 -70 -22 -161 24 -327 23 -80
41 -153 41 -163 0 -26 -90 -156 -161 -232 -52 -55 -138 -121 -225 -171 -17
-10 -16 -14 15 -62 94 -146 294 -242 506 -242 l92 0 7 -136 c5 -95 4 -140 -4
-148 -6 -6 -59 -32 -117 -57 -59 -25 -109 -51 -111 -58 -3 -9 23 -11 105 -9
l108 3 33 49 32 48 0 158 c0 162 2 170 41 170 4 0 10 -75 11 -167 l3 -168 173
-3 c110 -1 172 1 172 8 0 5 -10 12 -22 15 -29 7 -270 55 -274 55 -2 0 -4 62
-4 138 l0 137 68 35 c122 63 223 188 251 311 15 65 13 197 -4 281 -9 40 -38
142 -66 226 -47 142 -50 154 -35 171 9 10 16 22 16 28 0 5 93 59 208 118 305
159 288 145 256 207 -60 116 -195 189 -294 159z m-535 -383 c28 -24 48 -88 39
-124 -5 -18 -11 -20 -52 -17 -34 3 -58 -1 -86 -16 -21 -11 -43 -18 -47 -15
-19 11 -30 85 -19 119 24 72 111 99 165 53z"/>
<path d="M796 1548 c-22 -31 -21 -52 2 -43 9 4 32 9 50 12 33 6 41 20 20 41
-19 19 -55 14 -72 -10z"/>
<path d="M2215 1457 c-126 -43 -229 -127 -282 -234 -117 -235 -23 -507 214
-621 76 -36 81 -37 193 -37 110 0 118 2 187 34 39 18 86 48 104 67 l33 34 -49
50 c-27 28 -54 50 -60 50 -6 0 -27 -11 -47 -25 -123 -84 -294 -56 -385 63
-112 147 -63 365 99 446 92 46 206 34 301 -31 l38 -26 40 39 c65 63 68 73 28
107 -19 16 -63 43 -98 60 -58 27 -77 31 -170 34 -70 2 -120 -2 -146 -10z"/>
<path d="M2962 1030 c-112 -242 -200 -445 -197 -450 3 -6 40 -10 81 -10 l76 0
36 80 37 80 191 0 191 0 39 -77 39 -78 73 -3 c56 -2 74 0 78 11 3 8 -84 210
-193 448 -179 391 -201 434 -223 437 -24 2 -36 -22 -228 -438z m292 -19 c31
-68 56 -128 56 -133 0 -4 -57 -8 -126 -8 -97 0 -125 3 -121 13 42 103 122 266
127 260 4 -4 33 -64 64 -132z"/>
<path d="M3895 1458 c-13 -35 -155 -870 -150 -878 3 -6 38 -10 76 -10 63 0 70
2 78 23 4 12 23 122 42 245 18 122 36 222 39 222 3 0 56 -111 117 -247 151
-337 132 -338 283 3 68 153 117 250 119 238 2 -10 20 -122 40 -249 l36 -230
74 -3 c41 -2 77 1 82 5 4 4 -27 206 -70 448 l-77 440 -30 3 c-29 3 -29 2 -169
-298 -77 -165 -142 -300 -146 -300 -3 0 -69 134 -145 298 -130 276 -141 297
-167 300 -16 2 -29 -2 -32 -10z"/>
<path d="M4955 1448 c-3 -7 -4 -206 -3 -443 l3 -430 205 0 c226 1 245 5 315
67 120 105 101 288 -37 359 l-39 20 47 42 c109 96 112 233 6 329 -63 57 -116
68 -319 68 -130 0 -175 -3 -178 -12z m351 -157 c63 -38 66 -134 7 -181 -21
-17 -41 -20 -114 -20 l-89 0 0 110 0 110 83 0 c63 0 89 -4 113 -19z m-14 -351
c73 -21 107 -94 73 -160 -24 -46 -62 -60 -165 -60 l-90 0 0 115 0 115 73 0
c39 0 89 -5 109 -10z"/>
<path d="M5785 1448 c-3 -7 -4 -206 -3 -443 l3 -430 250 0 250 0 3 72 3 73
-173 2 -173 3 -5 365 -5 365 -73 3 c-52 2 -74 -1 -77 -10z"/>
<path d="M6244 1445 c-3 -8 54 -102 140 -229 l146 -215 0 -203 c0 -112 4 -209
9 -216 5 -9 29 -12 82 -10 l74 3 3 214 2 213 150 215 c89 128 146 221 143 229
-4 12 -23 14 -87 12 l-81 -3 -100 -142 c-55 -78 -102 -144 -105 -147 -3 -3
-52 62 -109 145 l-104 149 -79 0 c-59 0 -80 -4 -84 -15z"/>
</g>
</svg>
